<svg width="510" height="280" viewBox="0 0 510 280" fill="none" xmlns="http://www.w3.org/2000/svg">
<g clip-path="url(#clip0_33_32)">
<path fill-rule="evenodd" clip-rule="evenodd" d="M342.311 87.9609C347.348 81.289 353.333 75.5611 360.265 70.7773C368.071 65.3903 376.777 62.0983 386.384 60.9012C388.786 50.0965 389.987 42.016 389.987 36.6597C389.987 31.3035 388.786 26.8144 386.384 23.1923C395.991 18.4039 403.497 19.0024 408.901 24.9879C414.305 30.9735 415.506 41.7474 412.503 57.3098C426.577 57.6557 439.186 56.974 450.331 55.2648C461.476 53.5556 468.081 51.2445 470.146 48.3315C471.347 65.091 468.645 74.9672 462.04 77.9599C456.462 80.4871 426.914 79.7556 417.907 79.7556C411.903 79.7556 407.746 80.6534 405.437 82.4491C389.132 124.614 382.181 151.083 384.583 161.857C386.985 172.631 400.795 165.615 426.013 140.808L425.756 142.474C431.801 125.937 441.788 114.572 450.561 105.216C462.649 92.325 476.24 82.8178 489.882 90.0173C498.976 94.8169 501.651 103.083 497.906 114.816C488.812 110.549 479.45 112.149 469.82 119.615C454.057 131.837 435.381 162.132 438.524 178.811C438.683 179.655 439.753 180.188 441.734 180.411C446.548 178.811 453.503 171.612 462.598 158.813C470.088 148.272 475.204 139.185 475.437 130.814C475.471 129.619 474.936 127.752 473.832 125.215C478.112 122.015 482.659 120.415 487.474 120.415C492.289 120.415 494.964 121.482 495.499 123.615C491.342 139.081 484.387 154.013 474.635 168.412C466.422 180.538 446.428 192.11 433.709 190.01C424.308 188.458 419.943 177.52 420.691 165.65C403.497 180.509 389.96 188.39 380.079 189.291C369.872 190.222 364.468 181.842 363.868 164.152C363.868 156.37 364.468 148.589 365.669 140.808C366.87 133.027 371.673 113.574 380.079 82.4491C372.874 82.4491 366.87 82.7484 362.066 83.3469C357.909 83.865 351.952 85.7282 344.196 88.9365C353.797 94.3785 356.549 103.519 352.451 116.358C342.243 111.57 331.736 113.365 320.928 121.745C303.236 135.462 282.274 169.465 285.802 188.184C285.98 189.131 287.181 189.73 289.405 189.98C294.808 188.184 302.614 180.104 312.822 165.739C321.228 153.908 326.971 143.709 327.232 134.315C327.27 132.973 326.669 130.878 325.431 128.03C330.235 124.438 335.338 122.643 340.742 122.643C346.146 122.643 349.148 123.84 349.749 126.234C345.083 143.592 337.277 160.352 326.332 176.513C317.114 190.122 294.674 203.111 280.398 200.754C269.245 198.913 264.407 185.302 265.987 171.126C269.59 138.804 285.744 120.053 299.312 105.584C312.545 91.4724 327.381 80.9738 342.311 87.9609ZM324.689 209.641C321.456 209.641 318.834 207.43 318.834 204.703C318.834 201.976 321.456 199.765 324.689 199.765C327.922 199.765 330.543 201.976 330.543 204.703C330.543 207.43 327.922 209.641 324.689 209.641ZM206.288 138.9C205.388 144.287 196.381 164.937 177.467 190.974C164.858 208.332 153.149 219.106 142.341 223.296C137.47 222.82 135.969 220.126 137.838 215.215C145.698 194.567 156.204 181.569 163.057 165.834C174.656 139.2 180.368 115.888 178.368 115.556C175.792 115.128 165.772 132.538 151.348 153.265C135.513 176.02 114.651 202.984 99.1096 219.704C79.3113 241.005 55.5938 259.56 27.9573 275.37C4.54006 286.742 -4.16633 277.165 1.83809 246.639C5.38964 228.583 18.7428 193.345 36.0632 170.324C43.8391 159.988 51.6919 149.639 60.3811 142.491C63.608 139.836 72.816 131.717 81.0964 131.717C90.103 131.717 92.2553 137.606 93.7056 143.389C97.3083 157.754 85.5997 168.528 82.8977 170.324C80.1957 172.119 84.2859 154.437 79.295 157.754C76.593 159.55 67.5864 169.426 54.0765 191.872C40.3072 214.748 38.0875 228.172 37.8646 233.172C37.6416 238.172 44.4158 238.064 52.2752 232.274C85.2147 208.009 118.638 172.601 130.633 156.856C143.51 139.953 168.855 110.885 185.573 67.0731C187.286 62.5838 186.386 55.1019 182.871 44.6274C190.436 44.3257 195.84 43.7272 199.083 42.8317C209.575 39.9347 219.277 36.4013 224.302 37.4447C235.332 39.7356 222.743 64.6604 220.699 68.8688C203.143 105.01 190.756 128.985 187.374 143.389C185.448 151.595 187.06 155.57 190.076 154.163C195.928 151.432 206.883 135.345 206.288 138.9ZM218.975 224.606C229.182 218.621 245.694 212.635 268.511 206.65C302.736 197.671 316.495 202.042 312.644 206.65C310.786 208.872 283.6 211.786 261.306 220.117C237.379 229.059 218.268 243.405 217.173 244.359C210.189 250.445 205.951 257.617 201.862 259.622C191.25 264.824 171.24 258.724 173.041 243.461C173.758 237.387 184.41 208.9 207.266 159.963C219.717 133.304 239.49 98.784 255.902 60.3034C258.525 54.1527 259.126 45.7729 257.703 35.1642C266.124 35.2193 272.128 34.92 275.717 34.2663C284.869 32.599 294.051 29.7198 298.233 31.5729C308.196 35.9869 287.922 77.669 282.021 89.034C262.17 127.266 245.129 155.785 236.988 172.532C228.71 189.559 223.273 206.512 217.173 219.219C217.137 219.296 215.372 221.913 216.273 223.709C216.873 224.906 217.774 225.205 218.975 224.606ZM353.96 205.28C341.951 207.076 335.947 206.178 335.947 202.587C335.947 198.995 338.949 197.499 344.954 198.098H353.96C355.762 198.796 356.662 200.168 356.662 202.213C356.662 204.258 355.762 205.28 353.96 205.28ZM364.768 197.296C397.793 196.697 426.313 197.296 450.331 199.092C474.349 200.887 493.563 203.88 507.973 208.07C509.775 208.669 510.375 210.763 509.775 214.355C509.174 217.946 507.073 220.041 503.47 220.64C475.525 214.344 454.509 210.416 440.424 208.856C426.339 207.295 401.42 206.136 365.669 205.376C363.267 205.376 362.066 204.179 362.066 201.785C362.066 199.391 362.967 197.895 364.768 197.296ZM36.4251 41.1437C36.7374 41.3131 37.1372 41.4482 37.6245 41.549C41.4579 42.1579 44.8967 41.5767 47.9409 39.8054C48.5046 39.4733 49.3925 38.9613 50.6045 38.2694C51.8165 37.5775 52.7608 37.0378 53.4373 36.6503C59.5256 32.997 66.0367 29.9527 72.9706 27.5172C73.0834 27.4618 73.3652 27.3788 73.8162 27.2681C73.1961 28.5412 72.2096 30.5339 70.8566 33.2462C69.5037 35.9584 68.3198 38.3524 67.3051 40.4281C66.2904 42.5038 65.3884 44.538 64.5992 46.5307C62.7389 50.9035 60.8786 56.494 59.0182 63.3024C57.9471 67.2324 57.5807 71.4115 57.9189 75.8397C58.0881 77.8324 59.286 79.5759 61.5128 81.0704C63.7395 82.565 65.8394 83.0908 67.8125 82.648C68.4326 82.4819 68.799 82.2882 68.9118 82.0668C69.9265 79.1331 70.462 77.3342 70.5184 76.6699C71.364 68.201 72.4915 62.0016 73.9008 58.0716C74.8028 55.47 77.3677 48.9386 81.5958 38.4769C82.6105 35.9861 83.3574 34.1733 83.8366 33.0386C84.3158 31.9038 85.0909 30.3817 86.162 28.472C87.2331 26.5624 88.3606 24.9433 89.5444 23.6149C90.3336 22.6739 91.2356 22.0927 92.2503 21.8713C104.502 19.2148 118.255 16.9441 133.511 15.0592C137.754 19.4309 141.023 24.6541 142.989 30.5947C151.099 55.103 133.95 82.5396 104.685 91.8762C75.4197 101.213 45.1212 88.9135 37.011 64.4053C34.469 56.7232 34.4086 48.7535 36.4251 41.1437ZM37.5643 37.4838C42.9962 22.3163 56.7063 9.06075 75.3153 3.12384C94.3594 -2.95187 113.841 0.134499 127.361 9.78527C124.726 10.1657 119.674 10.9009 112.207 11.9909C103.863 13.2087 97.4649 14.1773 93.0114 14.8969C79.3126 17.2217 67.4179 20.6258 57.327 25.1094C49.0777 28.7959 42.4902 32.9206 37.5643 37.4838ZM97.0613 35.6469C94.1826 36.2122 91.0161 38.862 87.5618 43.5964C80.8689 52.9239 76.371 64.0531 74.0681 76.9844C73.7803 78.327 73.4924 80.3408 73.2045 83.026C72.9167 84.7219 73.6363 85.6405 75.3635 85.7819C80.5451 86.2058 83.8555 86.3118 85.2948 86.0998C86.8061 85.9585 88.7132 84.9339 91.0161 83.026C91.5918 82.5314 92.1676 81.9661 92.7433 81.3301C93.319 80.6942 93.9667 79.9522 94.6864 79.1043L96.3056 77.1964C97.0253 76.4191 97.637 75.8538 98.1408 75.5005C97.4931 78.327 98.0688 81.3301 99.8679 84.5099C100.588 85.7819 101.523 86.5238 102.675 86.7358C107.712 87.8664 111.67 86.5945 114.549 82.92C120.666 74.9351 124.732 68.8582 126.747 64.6891C126.819 64.5478 126.927 64.2475 127.071 63.7882C127.215 63.3289 127.323 62.8696 127.395 62.4103C127.467 61.951 127.503 61.6153 127.503 61.4034C127.359 60.4141 127.287 59.8841 127.287 59.8134C127.287 59.7428 127.179 59.1068 126.963 57.9056C121.71 62.852 115.629 69.4235 108.72 77.6204C108.72 77.5497 109.188 76.3838 110.123 74.1226C110.195 73.8399 110.303 73.4336 110.447 72.9037C110.591 72.3737 110.699 71.9674 110.771 71.6847C111.49 70.1301 112.894 67.0564 114.981 62.4633C117.068 57.8702 118.651 54.3371 119.731 51.8639C121.17 48.6134 122.213 45.999 122.861 44.0204C123.149 42.8898 123.077 42.1125 122.645 41.6885C122.357 41.4059 121.926 41.1586 121.35 40.9466C119.623 40.4519 117.967 40.5933 116.384 41.3706C115.377 41.7945 114.477 42.4835 113.685 43.4374C112.894 44.3914 112.084 45.6633 111.257 47.2532C110.429 48.8431 109.835 49.8854 109.475 50.38C107.532 53.4185 105.121 56.7749 102.243 60.4494C100.516 62.5693 97.9069 65.7137 94.4165 69.8828C90.9261 74.0519 88.3174 77.2317 86.5902 79.4222C85.5827 80.6942 85.0789 80.8355 85.0789 79.8462C85.0789 79.4929 85.1509 78.9276 85.2948 78.1503C85.8706 75.3238 86.3023 73.31 86.5902 72.1087C89.181 60.8027 93.5349 50.7334 99.652 41.9005C100.444 40.6286 101.415 39.3567 102.567 38.0848C103.574 36.9541 103.538 36.1416 102.459 35.6469C102.171 35.5056 101.667 35.4349 100.947 35.4349H99.9219C99.4541 35.4349 99.1123 35.4702 98.8964 35.5409C98.1048 35.5409 97.5291 35.5762 97.1692 35.6469H97.0613Z" fill="white"/>
<path d="M297.73 254L294.872 243.93H293.205V254H289.599V230.186H294.804C298.682 230.186 300.791 232.295 300.791 236.207V237.908C300.791 240.426 299.907 242.195 298.24 243.148L301.54 254H297.73ZM293.205 233.52V240.596H294.668C296.403 240.596 297.185 239.677 297.185 237.67V236.446C297.185 234.438 296.403 233.52 294.668 233.52H293.205Z" fill="#FFD600"/>
<path d="M314.296 233.52H307.764V240.256H313.038V243.59H307.764V250.666H314.296V254H304.158V230.186H314.296V233.52Z" fill="#FFD600"/>
<path d="M327.316 233.52H320.954V240.256H326.057V243.59H320.954V254H317.348V230.186H327.316V233.52Z" fill="#FFD600"/>
<path d="M340.176 254H336.502L335.72 248.591H331.739L330.957 254H327.351L331.467 230.186H336.06L340.176 254ZM333.678 235.289L332.216 245.325H335.243L333.78 235.289H333.678Z" fill="#FFD600"/>
<path d="M347.768 229.846C351.306 229.846 353.381 231.955 353.381 235.561V237.704L349.911 237.874V235.935C349.911 234.03 349.197 233.18 347.87 233.18C346.543 233.18 345.829 234.03 345.829 235.595V248.591C345.829 250.156 346.543 251.006 347.87 251.006C349.197 251.006 349.911 250.156 349.911 248.251V245.597L353.381 245.767V248.625C353.381 252.231 351.306 254.34 347.768 254.34C344.264 254.34 342.223 252.231 342.223 248.625V235.561C342.223 231.955 344.264 229.846 347.768 229.846Z" fill="#FFD600"/>
<path d="M361.688 229.846C365.226 229.846 367.302 231.955 367.302 235.561V237.704L363.832 237.874V235.935C363.832 234.03 363.117 233.18 361.79 233.18C360.464 233.18 359.749 234.03 359.749 235.595V248.591C359.749 250.156 360.464 251.006 361.79 251.006C363.117 251.006 363.832 250.156 363.832 248.251V245.597L367.302 245.767V248.625C367.302 252.231 365.226 254.34 361.688 254.34C358.184 254.34 356.143 252.231 356.143 248.625V235.561C356.143 231.955 358.184 229.846 361.688 229.846Z" fill="#FFD600"/>
<path d="M373.977 254H370.371V230.186H373.977V254Z" fill="#FFD600"/>
<path d="M383.289 229.846C386.896 229.846 389.107 232.125 389.107 235.867V248.319C389.107 252.061 386.896 254.34 383.289 254.34C379.683 254.34 377.472 252.061 377.472 248.319V235.867C377.472 232.125 379.683 229.846 383.289 229.846ZM383.289 233.18C381.861 233.18 381.078 234.132 381.078 235.901V248.285C381.078 250.054 381.861 251.006 383.289 251.006C384.718 251.006 385.501 250.054 385.501 248.285V235.901C385.501 234.132 384.718 233.18 383.289 233.18Z" fill="#FFD600"/>
<path d="M404.334 254H400.796L396.067 238.215H395.999V254H392.597V230.186H396.611L400.864 244.372H400.932V230.186H404.334V254Z" fill="#FFD600"/>
<path d="M418.35 233.52H411.818V240.256H417.091V243.59H411.818V250.666H418.35V254H408.212V230.186H418.35V233.52Z" fill="#FFD600"/>
<path d="M425.654 229.846C428.988 229.846 431.03 231.785 431.03 235.289V235.969L427.56 236.31V235.561C427.56 233.928 426.947 233.18 425.688 233.18C424.634 233.18 423.885 233.758 423.885 235.119V235.629C423.885 236.956 424.566 238.045 426.913 240.188C430.111 243.148 431.2 245.087 431.2 247.842V248.999C431.2 252.503 428.988 254.34 425.688 254.34C422.354 254.34 420.109 252.401 420.109 248.897V247.332L423.579 246.992V248.625C423.579 250.224 424.328 251.006 425.62 251.006C426.709 251.006 427.594 250.428 427.594 248.727V247.978C427.594 246.481 426.913 245.393 424.566 243.25C421.368 240.29 420.279 238.351 420.279 235.765V235.187C420.279 231.683 422.32 229.846 425.654 229.846Z" fill="#FFD600"/>
<path d="M437.67 254H433.86V250.19H437.67V254Z" fill="#FFD600"/>
</g>
<defs>
<clipPath id="clip0_33_32">
<rect width="510" height="280" fill="white"/>
</clipPath>
</defs>
</svg>
